<svg width="25" height="20" viewBox="0 0 25 20" fill="none" xmlns="http://www.w3.org/2000/svg">
<path d="M22.5 0H2.5C1.125 0 0 1.125 0 2.5V17.5C0 18.875 1.125 20 2.5 20H22.5C23.875 20 25 18.875 25 17.5V2.5C25 1.125 23.875 0 22.5 0ZM2.5 1.25H22.5C22.9381 1.25 23.3231 1.4775 23.5462 1.82L12.5 12.8663L1.45375 1.82C1.67688 1.4775 2.06188 1.25 2.5 1.25ZM22.5 18.75H2.5C1.81062 18.75 1.25 18.1894 1.25 17.5V3.38375L12.5 14.6337L23.75 3.38375V17.5C23.75 18.1894 23.1894 18.75 22.5 18.75Z" fill="#262626"/>
</svg>
