<svg width="392" height="324" viewBox="0 0 392 324" fill="none" xmlns="http://www.w3.org/2000/svg">
<path fill-rule="evenodd" clip-rule="evenodd" d="M23.9242 0.74696C14.9932 2.91796 7.03515 9.30996 2.95715 17.587C-0.411848 24.423 -1.19285 241.126 2.14015 244.142C4.26015 246.06 8.73916 246.538 10.2682 245.009C10.7782 244.499 21.3292 221.18 33.7132 193.19C61.4782 130.439 64.1322 126.281 82.2372 117.164C95.5442 110.462 90.5861 110.718 207.305 110.702C330.132 110.685 318.19 111.859 318.19 99.793C318.19 86.984 312.398 77.392 301.404 71.993C295.69 69.187 295.69 69.187 242.69 68.687C174.597 68.045 182.386 71.109 153.704 33.677C126.564 -1.74304 131.436 0.268964 72.1902 0.0189636C47.7152 -0.0840364 25.9962 0.24296 23.9242 0.74696ZM108.392 134.702C80.8862 141.936 79.7432 143.614 37.8072 238.352C2.20515 318.779 2.22115 318.716 16.0142 322.718C24.8462 325.28 307.119 323.471 312.46 320.817C321.871 316.142 322.26 315.409 356.885 237.049C397.201 145.807 397.32 145.315 381.353 135.928C375.062 132.23 122.111 131.093 108.392 134.702Z" fill="black"/>
</svg>
