<svg width="25" height="30" viewBox="0 0 25 30" fill="none" xmlns="http://www.w3.org/2000/svg">
<path d="M24.4891 23.114L21.6179 19.1064C20.2853 17.2462 18.6965 18.3555 17.645 19.0904C16.1868 20.1094 15.4341 20.5265 14.2661 18.8966L9.48594 12.2244C8.31797 10.5942 8.94451 10.0005 10.3554 8.91648C11.3726 8.13462 12.9103 6.95322 11.5771 5.0927L8.70622 1.08488C7.93498 0.00857517 6.56574 -0.322965 5.65364 0.34488L1.42137 3.44706C0.30944 4.2622 -0.153933 5.65545 0.0447735 7.58847C0.728243 14.2431 9.6428 26.6861 15.6821 29.4141C16.547 29.8047 17.3387 30 18.0521 30C18.7861 30 19.4378 29.7934 20.0016 29.3802L24.2338 26.278C25.1453 25.6099 25.26 24.1901 24.4891 23.1138L24.4891 23.114ZM23.3722 25.076L19.1399 28.1782C18.4835 28.6593 17.5215 28.6193 16.2807 28.0585C10.6982 25.5366 2.13687 13.5864 1.50506 7.43587C1.36449 6.06867 1.62626 5.13157 2.28299 4.65011L6.51526 1.54793C6.73477 1.38704 7.21017 1.52774 7.51713 1.95667L10.3881 5.96418C10.7983 6.53707 10.7657 6.73592 9.46686 7.73389C8.25779 8.66301 6.23474 10.2178 8.29656 13.0958L13.077 19.7681C15.1391 22.6461 17.2297 21.1851 18.479 20.3127C19.8207 19.3747 20.0179 19.4062 20.4284 19.9785L23.2996 23.986C23.6075 24.415 23.5916 24.9154 23.3721 25.0763L23.3722 25.076Z" fill="#262626"/>
</svg>
